<?xml version="1.0" encoding="utf-8"?>
<svg version="1.1" xmlns="http://www.w3.org/2000/svg" xmlns:xlink="http://www.w3.org/1999/xlink" x="0px" y="0px"
	 width="19px" height="23px" viewBox="0 0 19 23" enable-background="new 0 0 19 23" xml:space="preserve">
	<path fill="#FFFFFF" d="M17.977,16.372c-0.111,0.334-0.229,0.652-0.354,0.959c-0.305,0.722-0.666,1.388-1.082,1.998
		c-0.57,0.834-1.035,1.409-1.396,1.729c-0.557,0.526-1.152,0.798-1.791,0.812c-0.459,0-1.01-0.134-1.656-0.404
		c-0.646-0.271-1.238-0.406-1.781-0.406c-0.569,0-1.181,0.136-1.833,0.406s-1.18,0.414-1.582,0.427
		c-0.612,0.028-1.223-0.25-1.833-0.833c-0.389-0.348-0.875-0.944-1.458-1.792c-0.625-0.902-1.139-1.95-1.542-3.146
		c-0.429-1.291-0.645-2.541-0.645-3.748c0-1.389,0.292-2.583,0.875-3.583c0.458-0.805,1.069-1.44,1.833-1.906
		c0.764-0.466,1.59-0.704,2.479-0.718c0.486,0,1.125,0.153,1.916,0.458s1.297,0.459,1.52,0.459c0.167,0,0.729-0.181,1.688-0.542
		c0.9-0.334,1.666-0.472,2.291-0.417c1.693,0.14,2.965,0.826,3.811,2.062c-1.514,0.944-2.262,2.263-2.248,3.957
		c0.014,1.318,0.479,2.417,1.396,3.291C16.998,15.837,17.463,16.15,17.977,16.372z M13.645,1.105
		c0.014,0.139,0.021,0.278,0.021,0.417c0,1.042-0.369,2.014-1.104,2.915c-0.889,1.07-1.918,1.556-3.083,1.459
		C9.465,5.771,9.458,5.639,9.458,5.501c0-1,0.376-1.938,1.126-2.812c0.375-0.443,0.85-0.812,1.428-1.104
		C12.586,1.293,13.131,1.133,13.645,1.105z"/>
</svg>
